{"title":"Child's Play 3 1991 DVDrip English Klam","uid":6706787,"size":1457389143,"categoryP":"video","categoryS":"movies","magnet":"?xt=urn:btih:bb6d67a8ea30129b38dc01ca6392c12809e81cd8&amp;dn=Child%5C%27s+Play+3+1991+DVDrip+English+Klam&amp;tr=udp%3A%2F%2Ftracker.openbittorrent.com%3A80&amp;tr=udp%3A%2F%2Fopen.demonii.com%3A1337&amp;tr=udp%3A%2F%2Ftracker.coppersurfer.tk%3A6969&amp;tr=udp%3A%2F%2Fexodus.desync.com%3A6969","seeders":0,"leechers":0,"uploader":"Klambake","files":-1,"time":1317202649,"description":"With: Justin Whalin, Perrey Reeves en de stem van Brad Dourif\n\nHet is alweer acht jaar geleden dat Andy Barclay (Justin Whalin) gepest werd door de moorddadige pop Chucky. Om niet voor altijd in het poppen lichaam opgesloten te zitten, moet Chucky zijn ziel ruilen met iemand anders. En dat doet hij met Andy. Andy is nu 16 jaar en doet zijn best om te leren leven met de afschuwelijke ervaring uit zijn verleden. Omdat iedereen hem lastig vindt, wordt hij naar de Kent Military School gestuurd, waar hij hoopt tot rust te kunnen komen. Alleen, het verleden wil helemaal niet rusten.\n\nIt's been eight years since the events in the second film, we now see that Andy is a teenager who has been enrolled in a military school...\n\n------------------ Dutch Friends ------------------\nYou can find my Friends at: http://www.Film-Test.nl \n------ They got my dutch subs ----- and more ------\n\nGeneral:\n\nComplete name                    : Child's Play 3\\Child's Play 3.avi\nFormat                           : AVI\nFormat/Info                      : Audio Video Interleave\nFile size                        : 1.36 GiB\nDuration                         : 1h 25mn\nOverall bit rate                 : 2 262 Kbps\n\nVideo:\n\nFormat                           : MPEG-4 Visual\nFormat profile                   : Simple@L3\nFormat settings, BVOP            : No\nFormat settings, QPel            : No\nFormat settings, GMC             : No warppoints\nFormat settings, Matrix          : Default (H.263)\nCodec ID                         : XVID\nCodec ID/Hint                    : XviD\nDuration                         : 1h 25mn\nBit rate                         : 2 059 Kbps\nWidth                            : 652 pixels\nHeight                           : 352 pixels\nDisplay aspect ratio             : 1.852\nFrame rate                       : 25.000 fps\nColor space                      : YUV\nChroma subsampling               : 4:2:0\nBit depth                        : 8 bits\nScan type                        : Progressive\nBits/(Pixel*Frame)               : 0.359\nStream size                      : 1.24 GiB (91%)\nWriting library                  : XviD 1.1.2 (UTC 2006-11-01)\n\nAudio:\n\nFormat                           : AC-3\nFormat/Info                      : Audio Coding 3\nMode extension                   : CM (complete main)\nCodec ID                         : 2000\nDuration                         : 1h 25mn\nBit rate mode                    : Constant\nBit rate                         : 192 Kbps\nChannel(s)                       : 2 channels\nChannel positions                : Front: L R\nSampling rate                    : 48.0 KHz\nBit depth                        : 16 bits\nStream size                      : 118 MiB (8%)\nAlignment                        : Aligned on interleaves\nInterleave, duration             : 32 ms (0.80 video frame)\nInterleave, preload duration     : 64 ms\n\n\n","torrent":{"xt":"urn:btih:bb6d67a8ea30129b38dc01ca6392c12809e81cd8","amp;dn":"Child%5C%27s+Play+3+1991+DVDrip+English+Klam","amp;tr":["udp%3A%2F%2Ftracker.openbittorrent.com%3A80","udp%3A%2F%2Fopen.demonii.com%3A1337","udp%3A%2F%2Ftracker.coppersurfer.tk%3A6969","udp%3A%2F%2Fexodus.desync.com%3A6969"],"infoHash":"bb6d67a8ea30129b38dc01ca6392c12809e81cd8","infoHashBuffer":{"type":"Buffer","data":[187,109,103,168,234,48,18,155,56,220,1,202,99,146,193,40,9,232,28,216]},"announce":[],"urlList":[]}}